<svg xmlns="http://www.w3.org/2000/svg" width="194" height="17" fill="none" viewBox="0 0 194 17"><path fill="#1E3932" d="M10.04 11.02c.5 1.26.93 1.74 1.43 1.74V13H6.14v-.24c.66 0 1.22-.4.75-1.74l-.39-1.1H3.47l-.13.38c-.59 1.7.27 2.38 1.1 2.46V13H.75v-.24c.96-.1 1.7-.8 2.26-2.43L6 1.66h.31l3.72 9.36Zm-6.5-1.34h2.89L4.99 5.6 3.55 9.68ZM18.3 4.13c2.4 0 3.36 2.1 3.36 4.28 0 2.19-1.04 4.77-4.5 4.77-.54 0-1-.12-1.38-.3v1.4c0 1 .25 1.52 1.21 1.55v.24h-5v-.24c.53 0 1.1-.36 1.1-1.56V6.9c0-.88-.4-1.24-1.14-1.45V5.2l3.66-1.03.17.06v1.23a3.16 3.16 0 0 1 2.52-1.34Zm-1.26 8.8c1.23 0 1.83-1.09 1.83-4.33 0-2.43-.65-3.5-1.73-3.5-.5 0-.97.25-1.36.73v6.12c.28.63.67.97 1.26.97Zm12.57-8.8c2.4 0 3.36 2.1 3.36 4.28 0 2.19-1.03 4.77-4.5 4.77-.54 0-1-.12-1.38-.3v1.4c0 1 .26 1.52 1.22 1.55v.24h-5v-.24c.53 0 1.1-.36 1.1-1.56V6.9c0-.88-.4-1.24-1.14-1.45V5.2l3.66-1.03.16.06v1.23a3.16 3.16 0 0 1 2.52-1.34Zm-1.26 8.8c1.23 0 1.83-1.09 1.83-4.33 0-2.43-.64-3.5-1.72-3.5-.51 0-.98.25-1.37.73v6.12c.29.63.68.97 1.26.97Zm9.83-1.61c0 1.2.4 1.44 1.05 1.44V13h-4.77v-.24c.59 0 1.04-.24 1.04-1.44V2.77c0-.89-.21-1.35-1.02-1.58V.97L38 .19l.16.06v11.07Zm4.54-8.1c-.93 0-1.65-.56-1.65-1.37 0-.84.72-1.4 1.65-1.4.89 0 1.61.56 1.61 1.4 0 .81-.72 1.37-1.6 1.37Zm1.53 8.1c0 1.2.38 1.44 1.05 1.44V13h-4.77v-.24c.59 0 1.04-.24 1.04-1.44V6.79c0-.89-.21-1.37-1.02-1.6v-.23l3.54-.78.16.06v7.08Zm6.78 1.86c-2.62 0-4.2-1.76-4.2-4.34 0-3 2.03-4.7 4.7-4.7 1.32 0 2.53.46 2.53 1.55 0 .78-.58 1.14-1.3 1.14-1.68 0-1.26-2.34-2.25-2.34-.75 0-1.3 1.08-1.3 2.54 0 2.46 1 4.15 3.02 4.15.96 0 1.52-.42 2.01-.91l.23.09c-.54 1.81-1.76 2.82-3.44 2.82Zm14.04-1.82.1.1c-.46 1.34-1.41 1.72-2.3 1.72-1 0-1.69-.48-1.81-1.43a3.57 3.57 0 0 1-2.79 1.43c-1.2 0-2.26-.6-2.26-2.16 0-1.83 1.5-2.5 5.04-3.24V5.35c0-.63-.23-.9-.68-.9-.43 0-.69.28-.94.75-.41.8-.7 2.07-1.91 2.07-.67 0-1.2-.4-1.2-1.04 0-1.4 2.43-2.1 4.38-2.1 1.3 0 3.03.32 3.03 2.57V11c0 .45.18.66.56.66.33 0 .57-.15.78-.3Zm-5.09.62c.45 0 .8-.21 1.07-.51V8.02c-1.67.42-2.13 1.36-2.13 2.44 0 1.13.43 1.52 1.06 1.52Zm11.74-.32.12.15a3.33 3.33 0 0 1-2.56 1.35c-1.37 0-2.15-.46-2.15-1.96V4.57h-1.26v-.24h1.26V2.47l2.67-.7v2.56h1.64v.24H69.8v6.69c0 .57.32.75.81.75.47 0 .83-.15 1.11-.35Zm3.36-8.44c-.93 0-1.65-.56-1.65-1.37 0-.84.72-1.4 1.65-1.4.88 0 1.6.56 1.6 1.4 0 .81-.72 1.37-1.6 1.37Zm1.53 8.1c0 1.2.37 1.44 1.05 1.44V13h-4.77v-.24c.58 0 1.03-.24 1.03-1.44V6.79c0-.89-.2-1.37-1.02-1.6v-.23l3.54-.78.17.06v7.08Zm6.99 1.86c-2.61 0-4.41-1.85-4.41-4.52 0-2.67 1.8-4.53 4.4-4.53 2.65 0 4.43 1.86 4.43 4.53s-1.78 4.52-4.42 4.52Zm.01-.24c1.14-.02 1.55-1.28 1.55-4.28s-.42-4.3-1.58-4.3c-1.15 0-1.54 1.27-1.54 4.3s.43 4.28 1.57 4.28Zm14.92-1.62c0 1.2.5 1.44 1.02 1.44V13H95.1v-.24c.39 0 .73-.24.73-1.19V6.82c0-.98-.27-1.5-.97-1.5-.59 0-1.05.33-1.58.75v5.5c0 .95.36 1.19.75 1.19V13h-4.47v-.24c.53 0 1.04-.24 1.04-1.44V6.77c0-.88-.21-1.36-1.02-1.59v-.22l3.54-.78.16.06v1.53c.72-.66 1.74-1.64 3.1-1.64 1.61 0 2.14 1.19 2.14 2.27v4.92Zm12.08-3.4h4.56v.3h-.1c-.58 0-.77.44-.77 1.04v3.2c-.86.36-2.33.7-4.3.7-3.28 0-5.29-2.34-5.29-5.8 0-3.47 1.95-5.8 5.91-5.8 1.74 0 2.9.3 3.47.56l-.17 3.4h-.28c-.77-2.48-1.58-3.68-3.03-3.68-1.6 0-2.8 1.33-2.8 5.52 0 4.18 1.1 5.53 2.45 5.53.74 0 1.3-.34 1.73-.8V9.46c0-.66-.15-1.24-1.07-1.24h-.31v-.3Zm14.44 2.63c0 .89.23 1.3 1.14 1.34v.22l-3.66 1.04-.16-.06v-1.44c-.7.66-1.71 1.53-3 1.53-1.6 0-2.13-1.17-2.13-2.25V6.65c0-.88-.15-1.36-.89-1.47v-.22l3.4-.78.17.06v6.27c0 .97.27 1.5.98 1.5.54 0 .97-.29 1.47-.66v-4.7c0-.88-.14-1.36-.89-1.47v-.22l3.4-.78.17.06v6.31Zm4.5-7.33c-.93 0-1.65-.56-1.65-1.37 0-.84.72-1.4 1.65-1.4.89 0 1.6.56 1.6 1.4 0 .81-.71 1.37-1.6 1.37Zm1.53 8.1c0 1.2.38 1.44 1.05 1.44V13h-4.77v-.24c.59 0 1.04-.24 1.04-1.44V6.79c0-.89-.21-1.37-1.02-1.6v-.23l3.54-.78.16.06v7.08Zm12.28.57.02.22-3.7 1.04-.14-.06v-1.23a3.14 3.14 0 0 1-2.52 1.32c-2.4 0-3.36-2.09-3.36-4.28 0-2.17 1.03-4.75 4.5-4.75.54 0 1 .12 1.38.28V2.77c0-.89-.23-1.35-1.07-1.58V.97l3.57-.78.17.06v10.3c0 .89.24 1.3 1.15 1.34Zm-5.19.34c.51 0 .98-.25 1.37-.73V5.38c-.29-.63-.68-.98-1.26-.98-1.23 0-1.83 1.08-1.83 4.32 0 2.42.64 3.51 1.72 3.51Zm14.02-2.04.14.08c-.36.94-.95 2.9-3.53 2.9-2.38 0-4.1-1.6-4.1-4.37 0-2.5 1.37-4.67 4.27-4.67 2.41 0 3.22 1.47 3.22 3.56l-.01.36h-5.1c.18 2.14 1.26 3.12 2.94 3.12 1 0 1.63-.38 2.17-.98Zm-3.57-5.8c-1.12 0-1.57 1.33-1.57 3l.01.37h2.9c0-2.25-.29-3.37-1.34-3.37Zm8.82 6.93c0 1.2.39 1.44 1.05 1.44V13h-4.77v-.24c.58 0 1.03-.24 1.03-1.44V2.77c0-.89-.2-1.35-1.02-1.58V.97l3.54-.78.17.06v11.07Zm4.54-8.1c-.93 0-1.65-.56-1.65-1.37 0-.84.72-1.4 1.65-1.4.88 0 1.6.56 1.6 1.4 0 .81-.72 1.37-1.6 1.37Zm1.53 8.1c0 1.2.38 1.44 1.05 1.44V13h-4.77v-.24c.59 0 1.03-.24 1.03-1.44V6.79c0-.89-.2-1.37-1.02-1.6v-.23l3.55-.78.16.06v7.08Zm11.3 0c0 1.2.52 1.44 1.03 1.44V13h-4.44v-.24c.39 0 .73-.24.73-1.19V6.82c0-.98-.27-1.5-.97-1.5-.59 0-1.05.33-1.58.75v5.5c0 .95.36 1.19.75 1.19V13h-4.47v-.24c.53 0 1.04-.24 1.04-1.44V6.77c0-.88-.21-1.36-1.02-1.59v-.22l3.54-.78.16.06v1.53c.72-.66 1.74-1.64 3.1-1.64 1.61 0 2.14 1.19 2.14 2.27v4.92Zm10.05-1.13.13.08c-.36.94-.94 2.9-3.52 2.9-2.39 0-4.1-1.6-4.1-4.37 0-2.5 1.37-4.67 4.26-4.67 2.42 0 3.23 1.47 3.23 3.56l-.02.36h-5.1c.18 2.14 1.26 3.12 2.94 3.12 1 0 1.64-.38 2.18-.98Zm-3.57-5.8c-1.13 0-1.58 1.33-1.58 3 0 .13 0 .25.02.37h2.9c0-2.25-.3-3.37-1.34-3.37Zm8.88 8.79a7.6 7.6 0 0 1-3.25-.6l-.05-2.69.2-.03c.6 1.79 2.1 3.1 3.24 3.1.8 0 1.27-.41 1.27-1.16 0-2.1-4.78-1.94-4.78-4.98 0-1.53 1.21-2.69 3.27-2.69a7.1 7.1 0 0 1 2.95.53l-.2 2.14-.14.02c-.84-1.37-1.9-2.46-2.97-2.46-.72 0-1.16.45-1.16.99 0 1.92 4.95 1.56 4.95 4.77 0 1.93-1.4 3.06-3.33 3.06Z"/></svg>