<svg xmlns="http://www.w3.org/2000/svg" xmlns:xlink="http://www.w3.org/1999/xlink" width="104" height="104" viewBox="0 0 104 104">
  <defs>
    <clipPath id="clip-path">
      <rect id="長方形_30253" data-name="長方形 30253" width="33.496" height="60.846" transform="translate(0 0)" fill="none"/>
    </clipPath>
  </defs>
  <g id="APP" transform="translate(-135 -176)">
    <g id="グループ_47334" data-name="グループ 47334">
      <path id="パス_43407" data-name="パス 43407" d="M52,0A52,52,0,1,1,0,52,52,52,0,0,1,52,0Z" transform="translate(135 176)" fill="#edebe9"/>
    </g>
    <g id="グループ_47060" data-name="グループ 47060" transform="translate(170 199.742)">
      <g id="グループ_47059" data-name="グループ 47059" clip-path="url(#clip-path)">
        <path id="パス_43381" data-name="パス 43381" d="M30.108,60.846H3.388A3.388,3.388,0,0,1,0,57.458V3.388A3.388,3.388,0,0,1,3.388,0H30.108A3.388,3.388,0,0,1,33.5,3.388v54.07a3.388,3.388,0,0,1-3.388,3.388" fill="#1e3932"/>
        <path id="パス_43382" data-name="パス 43382" d="M30.245,59.805H7a2.331,2.331,0,0,1-2.331-2.331V7.607A2.332,2.332,0,0,1,7,5.275H30.245a2.331,2.331,0,0,1,2.331,2.332V57.474a2.331,2.331,0,0,1-2.331,2.331" transform="translate(-1.872 -2.117)" fill="#fff"/>
        <path id="パス_43383" data-name="パス 43383" d="M28.613,6.788H21.4a.823.823,0,0,1-.823-.823V4.722A.823.823,0,0,1,21.4,3.9h7.218a.823.823,0,0,1,.823.823V5.964a.823.823,0,0,1-.823.823" transform="translate(-8.256 -1.565)" fill="#1e3932"/>
      </g>
      <path id="パス_42656" data-name="パス 42656" d="M26.733,25.394l-8.315-.016-2.535-7.969-2.618,7.969L5,25.427l6.586,4.8L9.149,38.033l6.685-4.768,6.734,4.818-2.52-7.9Z" transform="translate(0.881 1.677)" fill="#cba258" fill-rule="evenodd"/>
    </g>
  </g>
</svg>
