<svg id="グループ_47576" data-name="グループ 47576" xmlns="http://www.w3.org/2000/svg" width="104" height="104" viewBox="0 0 104 104">
  <g id="グループ_47334" data-name="グループ 47334" transform="translate(0)">
    <path id="パス_43407" data-name="パス 43407" d="M52,0A52,52,0,1,1,0,52,52,52,0,0,1,52,0Z" fill="#edebe9"/>
  </g>
  <g id="グループ_48399" data-name="グループ 48399" transform="translate(22.12 31.943)">
    <path id="パス_43488" data-name="パス 43488" d="M7.344,31.239l.679,2.113-1.951,1.24,2.2-.087.5,2.263.721-2.144,2.275.239-1.832-1.4,1.012-1.939L8.99,32.765Z" transform="translate(-3.148 -13.811)" fill="#cba258"/>
    <path id="パス_43489" data-name="パス 43489" d="M4.062,0,3.6,3.8,0,4.7l3.383,1.62-.032,3.83L5.919,7.32,9.513,8.6,7.618,5.256,9.877,2.212l-3.573.9Z" transform="translate(0 0)" fill="#cba258"/>
    <path id="パス_43492" data-name="パス 43492" d="M29.474,2.6l.4,2.489,2.511.408L30.125,6.644l.39,2.489L28.71,7.352,26.44,8.485,27.59,6.24,25.8,4.447l2.514.394Z" transform="translate(-13.402 -0.464)" fill="#cba258"/>
    <path id="パス_43490" data-name="パス 43490" d="M60.587,22.146a10.416,10.416,0,0,0-13.1,1.548L45.477,25.7l-2.324-2.32a10.12,10.12,0,0,0-15.536,1.5A10.345,10.345,0,0,0,29.17,37.937L43.929,52.654a2.193,2.193,0,0,0,3.095,0L62.084,37.63a10.073,10.073,0,0,0-1.5-15.482" transform="translate(-11.872 -8.881)" fill="#006241"/>
    <path id="パス_43491" data-name="パス 43491" d="M44.663,53.433a3.112,3.112,0,0,1-2.212-.914L27.695,37.806a11.217,11.217,0,0,1-1.664-14.249A11.066,11.066,0,0,1,43,21.923l1.663,1.659,1.349-1.349A11.288,11.288,0,0,1,60.3,20.575,11,11,0,0,1,61.936,37.5L46.875,52.519a3.112,3.112,0,0,1-2.212.914M35.193,20.576a9.161,9.161,0,0,0-7.606,4.033,9.469,9.469,0,0,0,1.439,11.87L43.78,51.194a1.281,1.281,0,0,0,1.766,0L60.607,36.17a9.129,9.129,0,0,0,.016-12.91l-.023-.023a9.171,9.171,0,0,0-1.352-1.111l.588-.868-.593.863a9.529,9.529,0,0,0-11.9,1.438l-2.68,2.672-2.989-2.983a9.155,9.155,0,0,0-6.483-2.672" transform="translate(-11.059 -8.085)" fill="#cba258"/>
  </g>
</svg>
