<svg xmlns="http://www.w3.org/2000/svg" width="104" height="104" viewBox="0 0 104 104">
  <g id="グループ_47333" data-name="グループ 47333" transform="translate(-135 -176)">
    <rect id="長方形_27086" data-name="長方形 27086" width="104" height="104" rx="52" transform="translate(135 176)" fill="#edebe9"/>
    <g id="svg0" transform="translate(168.708 205.988)">
      <path id="パス_322" data-name="パス 322" d="M35.123,10.545a.813.813,0,0,0-.811-.811H26.363v-7.3L24.254,0H12.248L10.139,2.433v7.3H2.352a.813.813,0,0,0-.811.811L0,42.91a.813.813,0,0,0,.811.811H35.772a.813.813,0,0,0,.811-.811ZM12.248,2.433H24.172v7.3H12.248Z" fill="#c4a675"/>
      <path id="パス_323" data-name="パス 323" d="M12.3,47.238v.487H38.095a.813.813,0,0,0,.811-.811L37.689,21.2A26.043,26.043,0,0,0,12.3,47.238" transform="translate(-2.323 -4.003)" fill="#006241"/>
    </g>
  </g>
</svg>
