<svg id="グループ_47577" data-name="グループ 47577" xmlns="http://www.w3.org/2000/svg" xmlns:xlink="http://www.w3.org/1999/xlink" width="104" height="104" viewBox="0 0 104 104">
  <defs>
    <clipPath id="clip-path">
      <rect id="長方形_30634" data-name="長方形 30634" width="45.162" height="61.513" fill="#02754b"/>
    </clipPath>
  </defs>
  <rect id="長方形_27086" data-name="長方形 27086" width="104" height="104" rx="52" fill="#edebe9"/>
  <g id="グループ_48441" data-name="グループ 48441" transform="translate(29.419 22.75)">
    <g id="グループ_48439" data-name="グループ 48439" clip-path="url(#clip-path)">
      <path id="パス_43685" data-name="パス 43685" d="M22.581,0C5.9,0,0,6.242,0,6.242V55.273s5.9,6.242,22.581,6.242,22.581-6.242,22.581-6.242V6.242S39.26,0,22.581,0M42.724,54.139c-1.9,1.4-7.9,4.938-20.143,4.938-12.267,0-18.27-3.551-20.143-4.935V7.376c1.9-1.4,7.9-4.938,20.143-4.938,12.266,0,18.27,3.551,20.143,4.935Z" transform="translate(0 -0.001)" fill="#02754b"/>
      <path id="パス_43686" data-name="パス 43686" d="M6.468,9.054c0-.938-.9-1.142-1.454-1.38-.255-.1-.436-.211-.436-.409,0-.215.192-.346.483-.346a1.424,1.424,0,0,1,.892.409l.418-.609A1.6,1.6,0,0,0,5,6.135,1.254,1.254,0,0,0,3.6,7.367c0,.965.858,1.163,1.4,1.4.255.107.436.221.436.437s-.187.369-.51.369a1.664,1.664,0,0,1-1.09-.535l-.4.637a1.893,1.893,0,0,0,1.594.687A1.279,1.279,0,0,0,6.468,9.054" transform="translate(2.144 3.834)" fill="#02754b"/>
      <path id="パス_43687" data-name="パス 43687" d="M6.542,10.226H7.52v-3.2H8.5V6.194H5.565v.835h.977Z" transform="translate(3.478 3.87)" fill="#02754b"/>
      <path id="パス_43688" data-name="パス 43688" d="M8.661,9.341H9.984l.284.884h1.077L9.931,6.2h-1.1l-1.42,4.03h.96Zm.665-2.062L9.784,8.7H8.865Z" transform="translate(4.635 3.871)" fill="#02754b"/>
      <path id="パス_43689" data-name="パス 43689" d="M11.229,8.84h.323l.858,1.386H13.54l-1-1.477a1.251,1.251,0,0,0,.9-1.277c0-.852-.583-1.277-1.555-1.277H10.251v4.032h.978Zm0-1.828h.465c.46,0,.705.169.705.562s-.234.6-.705.6h-.465Z" transform="translate(6.407 3.871)" fill="#02754b"/>
      <path id="パス_43690" data-name="パス 43690" d="M12.764,6.2v4.03h1.682c.943,0,1.5-.392,1.5-1.134a.881.881,0,0,0-.8-.926.817.817,0,0,0,.637-.869c0-.749-.557-1.1-1.476-1.1Zm1.584,3.281h-.608V8.488h.608c.335,0,.562.166.562.483a.5.5,0,0,1-.562.505m.419-2.06c0,.323-.2.487-.544.487h-.483V6.944h.483c.346,0,.544.153.544.471" transform="translate(7.977 3.871)" fill="#02754b"/>
      <path id="パス_43691" data-name="パス 43691" d="M16.837,10.323A1.461,1.461,0,0,0,18.49,8.766V6.194h-.978V8.62c0,.522-.237.811-.674.811s-.665-.289-.658-.811V6.194H15.2V8.766a1.461,1.461,0,0,0,1.636,1.557" transform="translate(9.501 3.87)" fill="#02754b"/>
      <path id="パス_43692" data-name="パス 43692" d="M19.724,10.36a1.969,1.969,0,0,0,1.266-.4L20.77,9.1a1.434,1.434,0,0,1-.933.314,1.052,1.052,0,0,1-1.1-1.165,1.074,1.074,0,0,1,1.089-1.165,1.428,1.428,0,0,1,.86.273l.218-.879a2.164,2.164,0,0,0-1.2-.341,1.937,1.937,0,0,0-2,2.112,1.934,1.934,0,0,0,2.009,2.112" transform="translate(11.072 3.834)" fill="#02754b"/>
      <path id="パス_43693" data-name="パス 43693" d="M21.194,9.147l.284-.364.986,1.443h1.2l-1.5-2.215L23.55,6.194h-1.1L21.194,7.931V6.194h-.978v4.032h.978Z" transform="translate(12.635 3.87)" fill="#02754b"/>
      <path id="パス_43694" data-name="パス 43694" d="M23.964,9.57a1.664,1.664,0,0,1-1.09-.535l-.4.637a1.893,1.893,0,0,0,1.594.687,1.279,1.279,0,0,0,1.443-1.306c0-.938-.9-1.142-1.453-1.38-.257-.1-.437-.21-.437-.408,0-.216.192-.348.483-.348a1.424,1.424,0,0,1,.892.409l.419-.608a1.6,1.6,0,0,0-1.373-.585,1.254,1.254,0,0,0-1.4,1.232c0,.965.856,1.163,1.4,1.4.255.107.436.221.436.437s-.187.369-.51.369" transform="translate(14.044 3.834)" fill="#02754b"/>
      <path id="パス_43695" data-name="パス 43695" d="M9.627,32.87c-.255-.1-.437-.21-.437-.408,0-.216.193-.348.483-.348a1.424,1.424,0,0,1,.892.409l.419-.608a1.6,1.6,0,0,0-1.373-.585,1.254,1.254,0,0,0-1.4,1.232c0,.965.856,1.163,1.4,1.4.255.107.437.221.437.437s-.187.369-.512.369a1.671,1.671,0,0,1-1.09-.535l-.4.637a1.9,1.9,0,0,0,1.6.687,1.279,1.279,0,0,0,1.443-1.306c0-.938-.9-1.142-1.454-1.38" transform="translate(5.027 19.581)" fill="#02754b"/>
      <path id="パス_43696" data-name="パス 43696" d="M10.353,32.225h.977v3.2h.977v-3.2h.983V31.39H10.353Z" transform="translate(6.47 19.618)" fill="#02754b"/>
      <path id="パス_43697" data-name="パス 43697" d="M14.621,31.33a2.113,2.113,0,1,0,2.051,2.114,2.024,2.024,0,0,0-2.051-2.114m0,3.312c-.515,0-1-.387-1-1.2s.489-1.2,1-1.2a1.215,1.215,0,0,1,0,2.4" transform="translate(7.864 19.58)" fill="#02754b"/>
      <path id="パス_43698" data-name="パス 43698" d="M18.985,32.667c0-.851-.583-1.277-1.555-1.277H15.794v4.032h.978V34.037H17.1l.856,1.384h1.131l-1-1.475a1.255,1.255,0,0,0,.9-1.279m-1.748.705h-.465V32.209h.465c.46,0,.705.169.705.561s-.234.6-.705.6" transform="translate(9.871 19.618)" fill="#02754b"/>
      <path id="パス_43699" data-name="パス 43699" d="M18.483,35.421h2.381V34.6h-1.4v-.886h1.2v-.738h-1.2v-.774h1.4V31.39H18.483Z" transform="translate(11.552 19.618)" fill="#02754b"/>
      <rect id="長方形_30633" data-name="長方形 30633" width="4.067" height="4.261" transform="translate(14.661 30.836)" fill="#02754b"/>
      <path id="パス_43700" data-name="パス 43700" d="M3.632,43.158H36.99V9.8H3.632ZM30.6,27.827a2.182,2.182,0,1,1,2.184-2.181A2.184,2.184,0,0,1,30.6,27.827m2.59-7.911.1,1.818-6.134.322V33.7H25.262V24.712H19.377V33.7H10.121V22.949l-1.939.1-.1-1.818Z" transform="translate(2.27 6.123)" fill="#02754b"/>
    </g>
  </g>
</svg>
