<svg id="グループ_47577a" data-name="グループ 47577a" xmlns="http://www.w3.org/2000/svg" width="104" height="104" viewBox="0 0 104 104">
  <rect id="長方形_27086" data-name="長方形 27086" width="104" height="104" rx="52" fill="#edebe9"/>
  <path id="前面オブジェクトで型抜き_3" data-name="前面オブジェクトで型抜き 3" d="M8.157,22.754c-.166,0-.341-.006-.519-.016V.016C7.83,0,8,0,8.157,0a8.168,8.168,0,0,1,8.159,8.159V14.6A8.167,8.167,0,0,1,8.157,22.754Zm-1.882-.218h0a8.187,8.187,0,0,1-4.485-2.84A8.067,8.067,0,0,1,0,14.6V8.159a8.071,8.071,0,0,1,1.788-5.1A8.191,8.191,0,0,1,6.275.218V22.536Z" transform="translate(41.669 52.724) rotate(47)" fill="#1e3932"/>
  <path id="前面オブジェクトで型抜き_4" data-name="前面オブジェクトで型抜き 4" d="M13.337,32.609V0A12.791,12.791,0,0,1,25.576,12.777v7.056A12.789,12.789,0,0,1,13.338,32.609Zm-2.207-.095h0A12.811,12.811,0,0,1,0,19.833V12.777A12.81,12.81,0,0,1,11.13.1V32.514Z" transform="matrix(-0.588, 0.809, -0.809, -0.588, 84.546, 45.815)" fill="#1e3932"/>
</svg>
