<svg xmlns="http://www.w3.org/2000/svg" width="104" height="104" viewBox="0 0 104 104">
  <g id="グループ_47578" data-name="グループ 47578" transform="translate(0)">
    <g id="グループ_47335" data-name="グループ 47335" transform="translate(0 0)">
      <circle id="楕円形_2998" data-name="楕円形 2998" cx="52" cy="52" r="52" transform="translate(0)" fill="#edebe9"/>
      <g id="レイヤー_1" data-name="レイヤー 1" transform="translate(29 23.41)">
        <g id="グループ_48447" data-name="グループ 48447">
          <path id="パス_43703" data-name="パス 43703" d="M73.864,129.9l-.888-.172,1.031-2.661.387.075.233-1.2-2.2-.423.115-.6-1.2-.233-.115.6-2.2-.423-.233,1.2.387.075L69.151,129l-.888-.172-.233,1.2,5.6,1.078.233-1.2Zm-1.081-3.069L71.751,129.5l-1.379-.265.029-2.854,2.378.458Z" transform="translate(-43.668 -80.037)" fill="#02754b"/>
          <path id="パス_43704" data-name="パス 43704" d="M67.75,147.979l3.391.652,1.959-5.064-5.293-1.017-.057,5.429Zm1.268-3.946,2.407.462-1.06,2.74-1.379-.265Z" transform="translate(-43.488 -91.501)" fill="#02754b"/>
          <path id="パス_43705" data-name="パス 43705" d="M84.317,140.368l1.966-10.235,2.335.448-2.278,3.5.9.172A.966.966,0,0,1,88,135.38l-.254,1.318a.965.965,0,0,1-1.128.766l-.7-.136-.233,1.2.7.136a2.191,2.191,0,0,0,2.564-1.74l.254-1.318a2.2,2.2,0,0,0-.942-2.242l2.378-3.653-5.332-1.024-2.2,11.438,1.2.233Z" transform="translate(-53.347 -82.605)" fill="#02754b"/>
          <rect id="長方形_30635" data-name="長方形 30635" width="1.218" height="5.078" transform="translate(32.737 39.194) rotate(-83.37)" fill="#02754b"/>
          <rect id="長方形_30636" data-name="長方形 30636" width="9.357" height="1.218" transform="translate(21.015 32.164) rotate(-17.16)" fill="#02754b"/>
          <path id="パス_43706" data-name="パス 43706" d="M59.678,92.426l7.961-2.457L65.816,98.9l1.329-.412,2.1-10.285L59.32,91.262Z" transform="translate(-38.077 -56.615)" fill="#02754b"/>
          <path id="パス_43707" data-name="パス 43707" d="M38.74,97.271h1.389l1.565-2.861H40.3Z" transform="translate(-24.867 -60.601)" fill="#02754b"/>
          <path id="パス_43708" data-name="パス 43708" d="M47.934,94.41H46.545L44.98,97.271h1.389Z" transform="translate(-28.872 -60.601)" fill="#02754b"/>
          <path id="パス_43709" data-name="パス 43709" d="M20.7,78.018h8.33L23.321,88.449h1.389L31.082,76.8H20.7Z" transform="translate(-13.287 -49.297)" fill="#02754b"/>
          <rect id="長方形_30637" data-name="長方形 30637" width="4.677" height="1.218" transform="translate(17.971 18.197) rotate(-18.97)" fill="#02754b"/>
          <path id="パス_43710" data-name="パス 43710" d="M71.236,41.39l-1.314.451L67.68,54.93l1.314-.451Z" transform="translate(-43.443 -26.568)" fill="#02754b"/>
          <path id="パス_43711" data-name="パス 43711" d="M20.582,29.926l5.963-2.152-1.268,8.151,1.307-.473L28.625,22.33l-8.573,3.094L18.96,32.45l1.307-.473.319-2.056ZM27.1,24.174,26.756,26.4l-5.963,2.152.347-2.227L27.1,24.174Z" transform="translate(-12.17 -14.333)" fill="#02754b"/>
          <path id="パス_43712" data-name="パス 43712" d="M44.735,0,38.329,60.188H7.524L1.117,0H0L6.525,61.3H39.331L45.853,0Z" fill="#02754b"/>
        </g>
      </g>
    </g>
  </g>
</svg>
