<svg xmlns="http://www.w3.org/2000/svg" xmlns:xlink="http://www.w3.org/1999/xlink" width="104" height="104" viewBox="0 0 104 104">
  <defs>
    <clipPath id="clip-path">
      <rect id="長方形_30257" data-name="長方形 30257" width="50.989" height="49.838" fill="none"/>
    </clipPath>
  </defs>
  <g id="eGift" transform="translate(-135 -176)">
    <g id="グループ_40834" data-name="グループ 40834">
      <path id="パス_43410" data-name="パス 43410" d="M52,0A52,52,0,1,1,0,52,52,52,0,0,1,52,0Z" transform="translate(135 176)" fill="#edebe9"/>
    </g>
    <g id="グループ_47071" data-name="グループ 47071" transform="translate(161.505 203.081)" clip-path="url(#clip-path)">
      <path id="パス_43396" data-name="パス 43396" d="M50.989,21.248V48.837a1.007,1.007,0,0,1-1,1H1a1.006,1.006,0,0,1-1-1V21.248L24.639.292a1,1,0,0,1,1.413,0Z" transform="translate(0 -0.001)" fill="#00754a"/>
      <path id="パス_43397" data-name="パス 43397" d="M21.581,40.9,8.233,38.026l3.3-32.956L32.145,9.51Z" transform="translate(7.055 4.344)" fill="#fff"/>
      <path id="パス_43398" data-name="パス 43398" d="M20.258,17.669A4.517,4.517,0,1,1,16.795,12.3a4.517,4.517,0,0,1,3.463,5.367" transform="translate(9.705 10.455)" fill="#00754a"/>
      <path id="パス_43399" data-name="パス 43399" d="M.208,11.347,0,11.523V39.113a1.006,1.006,0,0,0,1,1H49.99a1.007,1.007,0,0,0,1-1V11.523l-.065-.056L25.363,29.778Z" transform="translate(0 9.724)" fill="#243832"/>
    </g>
  </g>
</svg>
