<svg xmlns="http://www.w3.org/2000/svg" width="104" height="104" viewBox="0 0 104 104">
  <g id="_001" data-name="001" transform="translate(-136 -176)">
    <g id="グループ_47335" data-name="グループ 47335" transform="translate(1)">
      <path id="パス_43408" data-name="パス 43408" d="M52,0A52,52,0,1,1,0,52,52,52,0,0,1,52,0Z" transform="translate(135 176)" fill="#edebe9"/>
    </g>
    <g id="グループ_39970" data-name="グループ 39970" transform="translate(159.196 200.375)">
      <path id="パス_354" data-name="パス 354" d="M9.449,9.8h4.093l1.3-3.891L16.095,9.8h4.053l-3.283,2.391,1.257,3.891L14.8,13.687l-3.282,2.391,1.215-3.891Z" transform="translate(-0.695 -0.435)" fill="#cba258"/>
      <path id="パス_355" data-name="パス 355" d="M3.647,0,2.877,2.8H0L2.472,4.174,1.418,6.89l2.23-1.783L5.876,6.89,4.9,4.174,7.254,2.8H4.417Z" transform="translate(0 0)" fill="#cba258"/>
      <path id="パス_356" data-name="パス 356" d="M26.6,23.8l-20.343.121L22.465,35.835l-6,19.371L32.921,43.373,49.5,55.328l-6.2-19.613L59.747,23.841,39.283,23.8,33.042,4.024Z" transform="translate(-0.46 -0.297)" fill="#cba258"/>
    </g>
  </g>
</svg>
