<svg xmlns="http://www.w3.org/2000/svg" width="94" height="17" fill="none" viewBox="0 0 94 17"><path fill="#fff" d="M10.28 11.32c0 1.2.45 1.44 1.02 1.44V13H6.67v-.24c.6 0 .94-.24.94-1.44V7.28H3.9v4.04c0 1.2.35 1.44.93 1.44V13H.17v-.24c.6 0 1.05-.24 1.05-1.44v-7.9C1.22 2.23.83 2 .17 2v-.24h4.64V2c-.51 0-.92.24-.92 1.44V7h3.72V3.43c0-1.2-.4-1.44-.94-1.44v-.24h4.65v.24c-.65 0-1.04.24-1.04 1.44v7.89Zm7.44 1.86c-2.6 0-4.4-1.85-4.4-4.52 0-2.67 1.8-4.53 4.4-4.53 2.64 0 4.43 1.86 4.43 4.53s-1.79 4.52-4.43 4.52Zm.02-.24c1.14-.02 1.54-1.28 1.54-4.28s-.42-4.3-1.57-4.3c-1.16 0-1.55 1.27-1.55 4.3s.44 4.28 1.58 4.28Zm14.88-8.61h3.28v.24c-1.29.27-1.62.94-2.19 2.58L31.67 13h-.24l-2.5-5.15L26.98 13h-.24l-2.67-7.08c-.38-1-.86-1.32-1.26-1.32v-.27h4.72v.27c-.54 0-1.12.3-.75 1.32l1.23 3.46 1.83-5.16h.21l2.52 5.22.8-2.34c.58-1.65.28-2.4-.75-2.53v-.24Zm13 7.33.11.15a3.33 3.33 0 0 1-2.56 1.35c-1.37 0-2.15-.46-2.15-1.96V4.57h-1.26v-.24h1.26V2.47l2.67-.7v2.56h1.64v.24h-1.64v6.69c0 .57.32.75.81.75.47 0 .83-.15 1.11-.35Zm5.64 1.52c-2.6 0-4.4-1.85-4.4-4.52 0-2.67 1.8-4.53 4.4-4.53 2.64 0 4.43 1.86 4.43 4.53s-1.79 4.52-4.43 4.52Zm.02-.24c1.14-.02 1.54-1.28 1.54-4.28s-.42-4.3-1.57-4.3c-1.16 0-1.55 1.27-1.55 4.3s.44 4.28 1.58 4.28Zm11.59-9.72c-.92 0-1.65-.56-1.65-1.37 0-.84.73-1.4 1.65-1.4.88 0 1.6.56 1.6 1.4 0 .81-.72 1.37-1.6 1.37Zm-2.18 1.74 3.54-.78.17.06v7.1c0 3.68-2.36 4.85-4.16 4.85-1.12 0-1.81-.27-1.81-1.06 0-.4.28-.87.99-.87 1.26 0 1.23 1.33 1.84 1.33.35 0 .45-.2.45-.63V6.8c0-.89-.2-1.37-1.02-1.6v-.23Zm10.62 8.22c-2.61 0-4.41-1.85-4.41-4.52 0-2.67 1.8-4.53 4.4-4.53 2.65 0 4.43 1.86 4.43 4.53s-1.78 4.52-4.42 4.52Zm.01-.24c1.14-.02 1.55-1.28 1.55-4.28s-.42-4.3-1.58-4.3c-1.15 0-1.54 1.27-1.54 4.3s.43 4.28 1.57 4.28Zm8.16-9.72c-.93 0-1.65-.56-1.65-1.37 0-.84.72-1.4 1.65-1.4.88 0 1.6.56 1.6 1.4 0 .81-.72 1.37-1.6 1.37Zm1.53 8.1c0 1.2.37 1.44 1.05 1.44V13h-4.77v-.24c.58 0 1.03-.24 1.03-1.44V6.79c0-.89-.21-1.37-1.02-1.6v-.23l3.54-.78.17.06v7.08Zm11.3 0c0 1.2.51 1.44 1.02 1.44V13H88.9v-.24c.4 0 .74-.24.74-1.19V6.82c0-.98-.27-1.5-.98-1.5-.58 0-1.05.33-1.57.75v5.5c0 .95.36 1.19.75 1.19V13h-4.47v-.24c.52 0 1.03-.24 1.03-1.44V6.77c0-.88-.2-1.36-1.02-1.59v-.22l3.54-.78.17.06v1.53c.72-.66 1.74-1.64 3.1-1.64 1.6 0 2.13 1.19 2.13 2.27v4.92Z"/></svg>