<svg xmlns="http://www.w3.org/2000/svg" width="149" height="14" fill="none" viewBox="0 0 149 14"><path fill="#fff" d="M13.91 11.82c0 1.2.45 1.44 1.03 1.44v.24h-4.63v-.24c.6 0 .93-.24.93-1.44V2.75l-4 10.77h-.59L2.4 3.17v7.24c0 1.81.8 2.85 1.52 2.85v.24H.45v-.24c.65 0 1.58-1.04 1.58-2.85V3.89c0-.9-.18-1.39-1.23-1.39v-.25h4.32l3.1 7.62 2.82-7.6h3.8v.23c-.68 0-.93.26-.93 1.48zm5.03-8.1c-.93 0-1.65-.56-1.65-1.37 0-.84.72-1.4 1.65-1.4.88 0 1.6.56 1.6 1.4 0 .82-.72 1.37-1.6 1.37m1.53 8.1c0 1.2.37 1.44 1.05 1.44v.24h-4.77v-.24c.58 0 1.03-.24 1.03-1.44V7.29c0-.88-.2-1.37-1.02-1.6v-.23l3.54-.78.17.06zm6.02 1.86a8 8 0 0 1-3.25-.6l-.05-2.69.2-.03c.6 1.79 2.1 3.1 3.24 3.1.8 0 1.27-.41 1.27-1.16 0-2.1-4.78-1.94-4.78-4.98 0-1.53 1.21-2.69 3.27-2.69a7 7 0 0 1 2.95.53l-.2 2.14-.14.02c-.84-1.37-1.9-2.46-2.97-2.46-.72 0-1.16.45-1.16.99 0 1.92 4.95 1.56 4.95 4.77 0 1.94-1.4 3.06-3.33 3.06m8.49 0a8 8 0 0 1-3.25-.6l-.05-2.69.2-.03c.6 1.79 2.1 3.1 3.24 3.1.79 0 1.27-.41 1.27-1.16 0-2.1-4.78-1.94-4.78-4.98 0-1.53 1.21-2.69 3.27-2.69a7 7 0 0 1 2.95.53l-.2 2.14-.15.02c-.83-1.37-1.88-2.46-2.96-2.46-.73 0-1.16.45-1.16.99 0 1.92 4.95 1.56 4.95 4.77 0 1.94-1.4 3.06-3.33 3.06m7-9.96c-.93 0-1.65-.56-1.65-1.37 0-.84.72-1.4 1.65-1.4.89 0 1.6.56 1.6 1.4 0 .82-.71 1.37-1.6 1.37m1.53 8.1c0 1.2.38 1.44 1.05 1.44v.24H39.8v-.24c.59 0 1.04-.24 1.04-1.44V7.29c0-.88-.21-1.37-1.02-1.6v-.23l3.54-.78.16.06zm6.99 1.86c-2.61 0-4.41-1.84-4.41-4.52 0-2.66 1.8-4.53 4.4-4.53 2.65 0 4.43 1.87 4.43 4.53 0 2.68-1.78 4.52-4.42 4.52m.01-.24c1.14-.01 1.55-1.28 1.55-4.28s-.42-4.3-1.58-4.3c-1.15 0-1.54 1.27-1.54 4.3 0 3.04.43 4.28 1.57 4.28m14.92-1.62c0 1.2.51 1.44 1.02 1.44v.24h-4.44v-.24c.4 0 .74-.24.74-1.19V7.32c0-.98-.27-1.5-.98-1.5-.58 0-1.05.33-1.57.75v5.5c0 .95.36 1.19.75 1.19v.24h-4.47v-.24c.52 0 1.03-.24 1.03-1.44V7.28c0-.89-.2-1.37-1.02-1.6v-.22l3.54-.78.17.06v1.53c.72-.66 1.74-1.63 3.1-1.63 1.6 0 2.13 1.18 2.13 2.26zm11.51 1.84c-3.12 0-5.32-2.38-5.32-5.78s2.2-5.81 5.32-5.81c3.14 0 5.39 2.4 5.39 5.8 0 3.41-2.25 5.8-5.39 5.8m.02-.27c1.33 0 2.26-1.65 2.26-5.51s-.93-5.54-2.3-5.54-2.2 1.65-2.2 5.54.9 5.52 2.24 5.52m12.58-8.56h3.27v.24c-.4 0-1.56.61-2.01 1.86l-2.31 6.57h-.3L84.8 6.39c-.48-1-.84-1.32-1.26-1.32v-.24h4.68v.24c-.54 0-1.1.31-.61 1.32l1.72 3.78 1.07-3.21c.45-1.32-.2-1.77-.87-1.89zm11.1 5.87.14.07c-.36.95-.95 2.91-3.53 2.91-2.38 0-4.1-1.6-4.1-4.38 0-2.5 1.37-4.67 4.27-4.67 2.41 0 3.22 1.48 3.22 3.56l-.01.36h-5.1c.18 2.14 1.26 3.12 2.94 3.12 1 0 1.63-.37 2.17-.97m-3.57-5.81c-1.12 0-1.57 1.34-1.57 3l.01.38h2.9c0-2.25-.29-3.38-1.34-3.38m11.24-.25c.83 0 1.3.52 1.3 1.27 0 .73-.4 1.35-1.2 1.35-.88 0-1.16-.54-1.64-.51q-.62.05-.77 1.14v4.05c0 .95.42 1.3 1.25 1.32v.24h-4.97v-.24c.53 0 1.04-.24 1.04-1.44V7.28c0-.89-.21-1.37-1.02-1.6v-.22l3.54-.78.16.06v2.35c.21-1.33 1.07-2.45 2.31-2.45m8.22.19h3.27v.24c-.4 0-1.56.61-2.01 1.86l-2.31 6.57h-.3l-3.38-7.11c-.48-1-.84-1.32-1.26-1.32v-.24h4.68v.24c-.54 0-1.1.31-.61 1.32l1.72 3.78 1.07-3.21c.45-1.32-.2-1.77-.87-1.89zm6.18-1.11c-.93 0-1.65-.56-1.65-1.37 0-.84.72-1.4 1.65-1.4.89 0 1.6.56 1.6 1.4 0 .82-.72 1.37-1.6 1.37m1.53 8.1c0 1.2.38 1.44 1.05 1.44v.24h-4.77v-.24c.59 0 1.04-.24 1.04-1.44V7.29c0-.88-.22-1.37-1.03-1.6v-.23l3.55-.78.16.06zm10.06-1.12.14.07c-.36.95-.95 2.91-3.53 2.91-2.38 0-4.1-1.6-4.1-4.38 0-2.5 1.37-4.67 4.27-4.67 2.41 0 3.22 1.48 3.22 3.56l-.01.36h-5.1c.18 2.14 1.26 3.12 2.94 3.12 1 0 1.63-.37 2.17-.97m-3.57-5.81c-1.12 0-1.57 1.34-1.57 3l.01.38h2.9c0-2.25-.29-3.38-1.34-3.38m14.3-.06h3.3v.24c-1.3.27-1.63.94-2.2 2.58l-2.04 5.85h-.24l-2.5-5.14-1.95 5.14h-.24l-2.67-7.08c-.38-1-.86-1.32-1.26-1.32v-.27h4.72v.27c-.54 0-1.12.3-.75 1.32l1.23 3.47 1.83-5.17h.21L145 9.96l.8-2.34c.58-1.66.28-2.4-.75-2.54z"/></svg>