<svg xmlns="http://www.w3.org/2000/svg" width="305" height="213" fill="none" viewBox="0 0 305 213"><path fill="#006241" d="M282.35 171.18c4.32-4.34 12.93-9.6 14.63-11.03 2.05-1.72 4.62-3.79 5.64-6.79.47-1.4 1.57-2.6 1.46-5.86-.06-1.8-3.2-8.12-3.2-8.12 1.5 2.48.05 8.38-13.52 17.1-5.09 3.26-16.4 12.33-17.95 16.82-1.17 3.37-1.4 5.97.3 10.92.93 2.69 2.49 4.74 4.2 7.02 1.62 2.18 11.86 10.13 11.75 16.62.4-.28.78-.85 1.1-1.53.92-1.89 2.57-4.25 2.6-6.35.04-2.9-.06-3.12-.66-4.56-.9-2.7-5.6-6.38-7.64-8.9-4.03-4.96-4.23-9.8 1.3-15.34"/><path fill="#006241" d="M102.9.98s1.77.64 3.28 3.68a56 56 0 0 1 4.55 13.24l-11.04-.07s-.29-4.38-2.63-9.42c-2.28-4.9-6.87-7.03-4.34-7.66.96-.23 10.18.23 10.18.23"/><path fill="#009a5b" d="M129.03 17.78c-2.25 4.76-5.33 9.65-9.37 13.33a27.6 27.6 0 0 1-14.13 4.92c6.8-3.86 14.18-15.18 15.62-36.03l5.89 3.48 5.6-3.18c-.17 6.66-1.29 12.05-3.6 17.48"/><path fill="#009a5b" d="M2.38 65.78c-.12 4.64 4.1 9.28 12.62 10.08s17.73-2.25 17.73-2.25l-.35-9.77s-12.4 4.25-17.04 3.51c-8.91-1.41-12.2-7.77-10.4-14.18z"/><path fill="#006241" d="M33.75 108.93c1.92-4.9 3.36-10.5 3.27-15.96a27.6 27.6 0 0 0-6.1-13.66c1.84 7.6-1.33 20.73-15.53 36.07l6.57 1.9 1.54 6.27c4.72-4.7 7.88-9.2 10.25-14.62"/><path fill="#c70000" stroke="#ef3340" stroke-linecap="round" stroke-linejoin="round" stroke-width="2" d="M282.84 18.15H29.97v176.77h252.87z"/><path fill="#fff" d="M156.74 38.22c.56 0 1.03.45 1.03 1.04s-.47 1.03-1.03 1.03-1.04-.44-1.04-1.03.47-1.04 1.04-1.04m0 1.92c.47 0 .85-.38.85-.88s-.38-.89-.85-.89a.86.86 0 0 0-.85.89c0 .5.37.88.85.88m-.4-1.49h.46q.43 0 .42.35c0 .22-.14.3-.32.33l.35.53h-.2l-.33-.52h-.2v.52h-.18zm.19.54h.19c.16 0 .32 0 .32-.2 0-.17-.15-.19-.27-.19h-.24z"/><path fill="#fff" d="M131.96 42.06c0 2.1-1.17 3.23-3.37 3.23-2.15 0-3.36-1.16-3.36-3.2v-3.73h2.42v3.6c0 1 .27 1.44.92 1.44s.97-.4.97-1.54v-3.5h2.42z"/><path fill="#fff" d="M97.28 40.08v5.07h-2.44v-5.07h-2.05v-1.72h6.53v1.72z"/><path fill="#fff" d="m103.44 39.9-.6 2.33h1.22zm1.57 5.25-.4-1.24h-2.3l-.44 1.24h-2.43l2.47-6.79h3.1l2.44 6.79z"/><path fill="#fff" d="m139.8 44.62-.74-1.76c-.43.33-.86.62-1.57.62-.96 0-1.6-.8-1.6-1.75 0-.98.56-1.8 1.56-1.8.63 0 1.18.32 1.62.67l.72-1.72a6 6 0 0 0-2.73-.66c-2.05 0-3.61 1.4-3.61 3.49 0 2.19 1.52 3.58 3.68 3.58 1.2 0 2.03-.28 2.67-.67"/><path fill="#fff" d="m145.3 45.15-1.54-2.48v2.48h-2.37v-6.79h2.37v2.49l1.43-2.49h2.66l-2.23 3.35 2.51 3.44z"/><path fill="#fff" d="M88.7 45.29c1.55 0 3.14-.55 3.14-2.29 0-1.56-1.33-2-2.37-2.21-.78-.17-1.16-.25-1.16-.57 0-.41.53-.45.81-.45.7 0 1.36.3 1.93.64l.63-1.55a7 7 0 0 0-2.77-.64c-1.6 0-2.85.77-2.85 2.33 0 1.27.97 1.76 2.03 2.02.74.18 1.21.24 1.21.6 0 .37-.36.47-.7.47-.78 0-1.52-.33-1.98-.73l-.77 1.5c.83.54 1.84.88 2.86.88"/><path fill="#fff" d="M151.73 45.29c1.53 0 3.13-.55 3.13-2.29 0-1.56-1.33-2-2.37-2.21-.78-.17-1.16-.25-1.16-.57 0-.41.53-.45.81-.45.7 0 1.36.3 1.93.64l.63-1.55a7 7 0 0 0-2.77-.64c-1.6 0-2.85.77-2.85 2.33 0 1.27.97 1.76 2.03 2.02.74.18 1.21.24 1.21.6 0 .37-.36.47-.71.47a3 3 0 0 1-1.97-.73l-.77 1.5c.83.54 1.84.88 2.86.88"/><path fill="#fff" d="M113.89 42.61a2 2 0 0 0 1.28-1.92c0-1.6-1.1-2.33-2.65-2.33h-3.67v6.79h2.36v-2.02h.59l1.22 2.02h2.54zm-1.1-1.91c0 .44-.28.7-.75.7h-.84V40h.85c.45 0 .74.22.74.69z"/><path fill="#fff" d="M122.14 41.68q1.31-.27 1.31-1.51c0-1.16-.86-1.81-2.39-1.81h-3.87v6.79h3.72q2.7 0 2.69-1.91c0-.89-.56-1.49-1.46-1.56m-2.62-1.85h.85c.45 0 .74.2.74.6v.01c0 .38-.28.6-.75.6h-.84zm1.63 3.21c0 .4-.29.64-.77.64h-.86V42.4h.87c.46 0 .76.21.76.63z"/><path fill="#fff" d="M166.94 42.82h-.54v2.33h-1.64v-6.78h2.75c1.63 0 2.61.72 2.61 2.15 0 1.08-.55 1.83-1.51 2.15l1.68 2.48h-1.9zm-.54-1.12h.78q1.2-.01 1.19-1c0-.67-.41-.95-1.19-.95h-.78z"/><path fill="#fff" d="M175.7 39.75v1.3h2.02v1.24h-2.03v1.48h2.36v1.38h-4v-6.78h4v1.38z"/><path fill="#fff" d="m191.84 38.37-2.31 6.78h-1.48l-1.46-4.44-1.47 4.44h-1.48l-2.29-6.78h1.8l1.38 4.4 1.42-4.4h1.45l1.42 4.4 1.37-4.4z"/><path fill="#fff" d="M198.14 43.66h-2.22l-.48 1.49h-1.61l2.38-6.78h1.85l2.38 6.78h-1.82zm-.33-1.07-.77-2.4-.78 2.4z"/><path fill="#fff" d="M205.96 42.82h-.54v2.33h-1.64v-6.78h2.75c1.63 0 2.61.72 2.61 2.15a2.1 2.1 0 0 1-1.52 2.15l1.68 2.48h-1.9zm-.54-1.12h.78q1.19-.01 1.18-1c0-.67-.4-.95-1.18-.95h-.78z"/><path fill="#fff" d="M213 38.37h2.4c2.03 0 3.44 1.08 3.44 3.4 0 2.3-1.4 3.38-3.44 3.38H213zm2.37 5.38c.96 0 1.72-.56 1.72-1.99 0-1.42-.77-1.99-1.72-1.99h-.74v3.98z"/><path fill="#fff" d="m221.88 44.16.69-1.06c.5.47 1.1.88 1.8.88.54 0 .85-.24.85-.63 0-1.05-3.07-.68-3.07-3.05 0-1.4 1.14-2.03 2.34-2.03 1.14 0 1.85.35 2.3.97l-.7 1.01c-.46-.35-.92-.68-1.52-.68-.46 0-.77.22-.77.59 0 .96 3.16.7 3.16 2.96 0 1.47-1.05 2.17-2.4 2.17-1.41 0-2.21-.53-2.68-1.13"/><path fill="#006241" stroke="#fff" stroke-miterlimit="10" d="m66.96 132.6.58-6.37c.66.09 1.73.35 3.14.35 3.1 0 4.25-1.81 4.25-5.62v-19.53h7.62v21.08c0 8.15-4.2 10.76-10.18 10.76-2.53 0-4.43-.44-5.4-.66Z"/><path fill="#006241" stroke="#fff" stroke-miterlimit="10" d="M91.8 117.15c0-9.92 7.26-16.47 15.9-16.47 8.68 0 15.99 6.55 15.99 16.47s-7.31 16.48-16 16.48c-8.63 0-15.89-6.56-15.89-16.48Zm23.83 0c0-6.33-3.9-9.34-7.93-9.34s-7.84 3-7.84 9.34 3.81 9.35 7.84 9.35 7.93-3.02 7.93-9.35Z"/><path fill="#006241" stroke="#fff" stroke-miterlimit="10" d="M146.14 120.83v12.04h-7.8v-12.04l-10.27-19.4h8.59l5.98 11.82 6.02-11.82h7.8l-10.33 19.4Z"/><path fill="#006241" stroke="#fff" stroke-miterlimit="10" d="M171.68 107.94v7.13h9.3v5.98h-9.3v11.82h-7.62v-31.44h18.43v6.51z"/><path fill="#006241" stroke="#fff" stroke-miterlimit="10" d="M191.12 121.5v-20.07h7.61v18.91c-.04 4.08 1.78 6.33 5.14 6.33 3.41 0 5.27-2.26 5.27-6.33v-18.9h7.62v20.05c0 8.33-5.32 12.14-12.89 12.14-7.35 0-12.75-3.81-12.75-12.14Z"/><path fill="#006241" stroke="#fff" stroke-miterlimit="10" d="M244.74 126.36v6.51h-17.1v-31.44h7.63v24.93z"/><path fill="#fff" d="M89.7 91.08v.65H77.13v-.65c1.63 0 2.57-.65 2.57-3.9V76.23H69.6v10.95c0 3.25.94 3.9 2.52 3.9v.65h-12.6v-.65c1.62 0 2.84-.65 2.84-3.9v-21.4c0-3.25-1.06-3.9-2.85-3.9v-.65H72.1v.65c-1.38 0-2.48.65-2.48 3.9v9.72H79.7v-9.72c0-3.25-1.1-3.9-2.57-3.9v-.65h12.61v.65c-1.75 0-2.8.65-2.8 3.9v21.4c0 3.25 1.22 3.9 2.76 3.9"/><path fill="#fff" d="M93.57 76.48c0-9.23 5.97-15.74 14.44-15.74s14.6 6.5 14.6 15.74-6.1 15.7-14.6 15.7-14.44-6.47-14.44-15.7m20.62 0c0-10.45-2.52-15.01-6.23-15.01-3.7 0-5.97 4.47-5.97 15s2.44 14.98 6.06 14.98 6.14-4.48 6.14-14.97"/><path fill="#fff" d="m148.72 79.85-.7 11.88h-21.59v-.65c1.63 0 2.85-.65 2.85-3.9v-21.4c0-3.25-1.06-3.9-2.81-3.9v-.65h13.67v.65c-2 0-3.62.65-3.62 3.9v21.4c0 3.2.81 3.9 2.48 3.9h1q5.23 0 8.02-11.23z"/><path fill="#fff" d="M164.83 91.08v.65h-12.98v-.65c1.63 0 2.85-.65 2.85-3.9v-21.4c0-3.25-1.06-3.9-2.85-3.9v-.65h12.94v.65c-1.75 0-2.85.65-2.85 3.9v21.4c0 3.25.93 3.9 2.89 3.9"/><path fill="#fff" d="M197.2 76.32c0 10.2-5.45 15.41-14.72 15.41h-13.63v-.65c1.63 0 2.85-.65 2.85-3.9v-21.4c0-3.25-1.06-3.9-2.85-3.9v-.65h13.63c9.23 0 14.72 4.88 14.72 15.09m-8.46-.04c0-9.64-1.79-14.4-6.3-14.4h-1.02c-1.38 0-2.48.65-2.48 3.9v21.4c0 3.25.93 3.9 2.52 3.9h1.06c4.51 0 6.22-4.84 6.22-14.8"/><path fill="#fff" d="M227.13 91.08v.65H212.7v-.65c1.8 0 3.3-1.06 2.04-4.72l-1.06-2.97h-8.21l-.37 1.02c-1.59 4.6.73 6.47 2.97 6.67v.65h-9.97v-.65c2.6-.24 4.6-2.16 6.15-6.59l8.09-23.5h.85l10.09 25.37c1.34 3.42 2.52 4.72 3.86 4.72m-13.66-8.34-3.9-11.06-3.91 11.06z"/><path fill="#fff" d="M255.2 61.23v.6c-2.73.09-5.37 4.44-6.83 7.98l-3.22 7.69v9.02c0 2.85 2 4.48 3.87 4.48v.73h-15.26V91c1.88 0 3.87-1.63 3.87-4.48v-8.78l-5.86-11.06c-1.91-3.66-2.89-4.84-4.47-4.84v-.61h13.99v.6c-1.47 0-3.7 1.1-1.71 4.85l4.76 9.1h.24l2.69-5.97c1.46-3.46 1.14-7.93-1.14-7.97v-.61z"/><path fill="#fff" d="M106.07 161.52v4.67c0 3.34 2.2 4.2 4.23 4.2v.65H94.56v-.66c2.08 0 4.23-.85 4.23-4.19v-23.67c0-1.01-.4-1.34-1.1-1.34h-.2c-2.76 0-5.37 3.99-7.44 12.28h-.53l.28-12.93h25.42l.29 12.93h-.7c-2.07-8.3-4.63-12.28-7.4-12.28h-.24c-.65 0-1.06.33-1.06 1.34v19z"/><path fill="#fff" d="M119.09 155.78c0-9.23 5.98-15.74 14.44-15.74s14.6 6.5 14.6 15.74-6.1 15.7-14.6 15.7-14.44-6.47-14.44-15.7m20.62 0c0-10.45-2.52-15-6.22-15s-5.98 4.47-5.98 15 2.44 14.97 6.06 14.97 6.14-4.47 6.14-14.97"/><path fill="#fff" d="M193.03 140.53v.65c-2.28.37-4.8 1.63-6.55 7.6l-6.34 22.25h-.61l-8.42-19.93-6.67 19.93h-.49l-9.52-25.42c-1.22-3.21-2.72-4.43-4.19-4.43v-.65h15.3v.65c-1.8 0-3.7.9-2.53 4.43l4.4 14 6.59-19.45h.2l8.13 19.97 3.01-11.34c1.63-6.14-.6-7.24-2.84-7.61v-.65z"/><path fill="#fff" d="M224.15 140.53v.65c-1.75 0-4.28 2.8-4.28 7.73v22.12h-4.18l-16.4-27.33v18.96c0 4.92 2.16 7.72 4.11 7.72v.66H194v-.66c1.76 0 4.28-2.8 4.28-7.72v-17.7c0-2.44-.61-3.78-3.34-3.78v-.65h11.43l12.49 21.2V148.9c0-4.92-2.2-7.73-4.11-7.73v-.65z"/><path fill="#009a5b" d="M81.04 10.9c2.17-3.76 4.32-8.49 8.87-9.76s13.04-.17 13.04-.17-3.88-.14-6.28 3.42c-2.4 3.55-4.1 7.84-6.03 12.26-8.88 20.43-52.97 27.37-62.26 1.27 1.03-1.42 1.3.99 2.13-.8 5.58 11.27 20.6 12.53 37.37 5.6 5.1-2.1 8.97-4.55 13.16-11.82"/><path fill="#009a5b" d="M25.98 18.45q-.05.67.1 1.18l-.01.03a20 20 0 0 0-4.85.45 17 17 0 0 0-7.9 4.1 14 14 0 0 0-3.87 6.41c-1.94-.2-3.24-.68-3.25-.68A5.3 5.3 0 0 1 5 26.8c-.02-2.8.44-5.53 2.8-8.26l.02-.03c2.66-2.57 5.93-3.58 9.12-3.9 4.86-.49 8 1.27 9.39 2.26q-.28.57-.36 1.58"/><path fill="#009a5b" d="M52.29 10.64a14 14 0 0 1-.48 3.75l-.03.1q-.13.4-.3.8c-.4-1.92-3.35-2.79-4.48-2.96-3.46-.55-11.16 3.25-14.81 5.72l-.65-.2a2.4 2.4 0 0 0-.8-1.56q-.3-.24-.65-.36 0-.03.04-.07c2.28-3.33 7.34-9.6 13.75-10.75 1.4-.25 2.9-.43 4.33-.08a8 8 0 0 1 3.76 2.26l.17 1.28a17 17 0 0 1 .14 2.07"/><path fill="#006241" d="M11.67 58.17c9.7-5.14 12.07-6.33 15.52-9.23 5.13-4.1 5.95-6.24 6.97-9.58 1.4-5.39.89-10.6-2.46-18.12a42 42 0 0 0 8.46 3.89c5.22 1.68 10.55 1.19 13.92-1.3l.01-.01a7.5 7.5 0 0 0 2.93-5.21c.4-4.07-2.48-8.22-4.22-10.32l-.83-1 .17 1.28c.13.98.29 2.91-.1 4.9q-.63 3.15-2.68 4.5c-1.06.69-4.87 2.9-9.22 2.08a76 76 0 0 1-8.6-2.2q-.15-1.01-.8-1.56a3 3 0 0 0-2.04-.55q-.66.05-1.13.17c-1.04.27-1.45.91-1.6 2.53q-.05.68.11 1.2c-.8 1.24-2.15 3.06-3.42 4.9-6.34 9.2-16.46 5.4-16.46 5.4l1.85 2.16c3.95 3.35 6.57 4.75 10.8 3.68 5.18-1.3 7.84-7.96 9.3-12.54.93 3.57 1.75 8.34-3.06 14.6-2.96 3.87-9.77 8.58-14.21 10.59C5.15 51-3.78 61.08 4.07 70.83c0 0-1.72-8.42 7.6-12.66"/><path fill="#009a5b" d="M213.02 184.71s3.46 2.26 9.51 5.76c6 3.47 7.85.07 7.85.07s.14.4.28 1.02c.02.16 1.03 1.27 1.05 1.42.64 6.67-6.03 6.92-6.03 6.92-6.1 1.15-16.93-7.41-16.93-7.41l4.6-2.4z"/><path fill="#006241" d="M234.27 171.91c-1.46.14-2.96 2.56-2.38 3.76.49 1.02 1.06 2.41 2.36 5.07.44.9 1.38 2.9 1.68 3.84 1.82 5.95 1.65 7.1 1.01 8.89-1.51 3.53-4.8 6.85-13.27 6.53 0 0 3.04.04 4.47-1 2.18-1.58 2.06-3.26 1.56-6.88-1.42-5.27-2.46-7.44-3.1-9.17a68 68 0 0 1-1.4-3.24c-.44-.67-.48-3.22 1.04-4.89s3.1-2.7 4.42-2.93c1.33-.24 3.6.02 3.6.02z"/><path fill="#009a5b" d="M284.05 210c-5.19 4.49-11.32 3.73-19.12-.85-4.53-2.66-9.23-9.09-14.14-15.1-8.95-10.97-14.23-15.92-15.1-16.97-1.81-2.22-5.52-4.03-8.1-2.76-1.3.63-2.45 2.04-2.65 4.52 0 0-.15-2.9 1.3-4.7 1.55-1.92 4.72-3.5 8.23-3.34 15.19.63 23.07 18.73 27.26 23.2 4.37 4.69 7.55 8.27 11.98 10.27 5.41 2.44 7.4 2.08 9.72 1.65 3.6-.66 7.57-5.64 4.65-11.7 0 0 1.06 1.66 1.34 3.01.68 3.38-.5 8.1-5.37 12.76"/><path fill="#006241" d="m296.5 111.7-4.86 1.42-.46 5.49s-10.09-10.15-16.11-14.26c-2.92-1.99-7.27-4.11-10.14-4.35 2.24-1.1 5.74-2.7 7.18-2.59 2.81.21 3.6-.28 8.97 2.38 3.27 1.54 11.63 8.84 13.06 9.98z"/><path fill="#009a5b" d="M272.95 97.64c-2.41.41-4.8 1.83-6.06 3.42 0 0-3.57 5.08.14 11.15 2.85 4.68 6.29 7.57 9.58 10.66 9.14 8.58 24.75 8.57 27.6 23.5 1.29 6.67-5.26 12.1-5.26 12.1 2.93-3.52 3.76-5.72 3.18-7.49-.71-2.19-2.33-3.72-4.31-4.9s-26.44-10.92-37.76-25.67c-3.59-4.94-3.85-10.13-.16-15.92 3.36-5 10.55-7.78 14.45-7.13 1.72.29 3.53.96 3.53.96s-2.86-1.04-4.93-.68"/></svg>