<svg xmlns="http://www.w3.org/2000/svg" width="147" height="14" fill="none" viewBox="0 0 147 14"><path fill="#fff" d="M4.86 8.89v2.43c0 1.2.37 1.44 1.1 1.44V13H1.13v-.24c.6 0 1.05-.24 1.05-1.44V3.44c0-1.04-.57-1.46-1.2-1.46v-.23h4.75c3.1 0 4.82.7 4.82 3.24 0 2.61-1.62 3.9-5.5 3.9h-.2Zm0-5.9v5.63h.18c2.1 0 2.64-1.81 2.64-3.72 0-2.09-.8-2.93-1.88-2.93-.75 0-.94.34-.94 1.03Zm13.2 1.14c.82 0 1.29.53 1.3 1.28-.01.73-.4 1.35-1.21 1.35-.87 0-1.16-.54-1.64-.51-.39.03-.67.42-.76 1.14v4.05c0 .95.42 1.3 1.24 1.32V13h-4.96v-.24c.52 0 1.03-.24 1.03-1.44V6.78c0-.89-.21-1.37-1.02-1.6v-.22l3.54-.78.17.06v2.35c.2-1.33 1.06-2.46 2.3-2.46Zm10.02 6.07.13.07c-.36.95-.94 2.91-3.52 2.91-2.39 0-4.1-1.6-4.1-4.38 0-2.5 1.37-4.67 4.26-4.67 2.42 0 3.23 1.48 3.23 3.56l-.02.36h-5.1c.18 2.14 1.26 3.12 2.94 3.12 1 0 1.64-.38 2.18-.97ZM24.5 4.39c-1.13 0-1.58 1.33-1.58 3 0 .14 0 .25.02.38h2.9c0-2.25-.3-3.38-1.34-3.38Zm8.88 8.79a7.6 7.6 0 0 1-3.25-.6l-.05-2.69.2-.03c.6 1.79 2.1 3.1 3.24 3.1.8 0 1.27-.41 1.27-1.16 0-2.1-4.78-1.94-4.78-4.98 0-1.53 1.21-2.69 3.27-2.69a7.1 7.1 0 0 1 2.95.53l-.2 2.14-.14.02c-.84-1.37-1.9-2.46-2.97-2.46-.72 0-1.16.45-1.16.99 0 1.92 4.95 1.56 4.95 4.77 0 1.94-1.4 3.06-3.33 3.06ZM45.9 10.2l.14.07c-.36.95-.95 2.91-3.53 2.91-2.38 0-4.1-1.6-4.1-4.38 0-2.5 1.37-4.67 4.27-4.67 2.41 0 3.22 1.48 3.22 3.56l-.01.36h-5.1c.18 2.14 1.26 3.12 2.94 3.12 1 0 1.63-.38 2.17-.97Zm-3.57-5.81c-1.12 0-1.57 1.33-1.57 3l.01.38h2.9c0-2.25-.29-3.38-1.34-3.38Zm14.17 6.93c0 1.2.51 1.44 1.02 1.44V13h-4.44v-.24c.39 0 .73-.24.73-1.19V6.82c0-.98-.27-1.5-.97-1.5-.59 0-1.05.33-1.58.75v5.5c0 .95.36 1.19.75 1.19V13h-4.47v-.24c.53 0 1.04-.24 1.04-1.44V6.78c0-.89-.21-1.37-1.02-1.6v-.22l3.54-.78.16.06v1.53c.72-.66 1.74-1.63 3.11-1.63 1.6 0 2.13 1.18 2.13 2.26v4.92Zm7.88.34.12.15a3.33 3.33 0 0 1-2.56 1.35c-1.37 0-2.15-.46-2.15-1.96V4.57h-1.26v-.24h1.26V2.47l2.67-.69v2.55h1.64v.24h-1.64v6.69c0 .57.32.75.81.75.47 0 .83-.15 1.11-.35Zm10.34 1.5c-3.12 0-5.32-2.38-5.32-5.79 0-3.4 2.2-5.8 5.32-5.8 3.14 0 5.39 2.4 5.39 5.8 0 3.41-2.25 5.8-5.39 5.8Zm.02-.27c1.33 0 2.26-1.65 2.26-5.52 0-3.85-.93-5.53-2.29-5.53-1.37 0-2.2 1.65-2.2 5.54 0 3.9.9 5.51 2.23 5.51Zm12.58-8.56h3.27v.24c-.4 0-1.56.61-2 1.86L86.26 13h-.3L82.6 5.89c-.48-1-.84-1.32-1.26-1.32v-.24h4.68v.24c-.54 0-1.1.31-.62 1.32l1.73 3.78 1.06-3.21c.45-1.32-.2-1.77-.87-1.89v-.24Zm11.1 5.87.14.07c-.36.95-.94 2.91-3.52 2.91-2.39 0-4.1-1.6-4.1-4.38 0-2.5 1.37-4.67 4.26-4.67 2.42 0 3.23 1.48 3.23 3.56l-.02.36h-5.1c.18 2.14 1.26 3.12 2.94 3.12 1 0 1.64-.38 2.18-.97Zm-3.56-5.81c-1.13 0-1.58 1.33-1.58 3 0 .14 0 .25.02.38h2.9c0-2.25-.3-3.38-1.34-3.38Zm11.24-.25c.82 0 1.29.52 1.3 1.27-.01.73-.4 1.35-1.21 1.35-.87 0-1.16-.54-1.64-.51-.39.03-.67.42-.76 1.14v4.05c0 .95.42 1.3 1.24 1.32V13h-4.96v-.24c.52 0 1.03-.24 1.03-1.44V6.78c0-.89-.2-1.37-1.02-1.6v-.22l3.54-.78.17.06v2.35c.2-1.33 1.06-2.46 2.3-2.46Zm8.21.19h3.27v.24c-.4 0-1.56.61-2.01 1.86L113.26 13h-.3l-3.38-7.11c-.47-1-.83-1.32-1.25-1.32v-.24H113v.24c-.53 0-1.09.31-.61 1.32l1.72 3.78 1.07-3.21c.45-1.32-.2-1.77-.87-1.89v-.24Zm6.18-1.11c-.93 0-1.65-.56-1.65-1.37 0-.84.72-1.4 1.65-1.4.89 0 1.6.56 1.6 1.4 0 .81-.71 1.37-1.6 1.37Zm1.53 8.1c0 1.2.38 1.44 1.05 1.44V13h-4.77v-.24c.59 0 1.04-.24 1.04-1.44V6.79c0-.88-.21-1.37-1.02-1.6v-.23l3.54-.78.16.06v7.08Zm10.07-1.13.13.08c-.36.95-.94 2.91-3.53 2.91-2.38 0-4.09-1.6-4.09-4.38 0-2.5 1.37-4.67 4.26-4.67 2.41 0 3.22 1.48 3.22 3.56l-.01.36h-5.1c.18 2.14 1.26 3.12 2.94 3.12 1 0 1.63-.38 2.18-.97Zm-3.58-5.8c-1.12 0-1.57 1.33-1.57 3 0 .14 0 .25.02.38h2.89c0-2.25-.28-3.38-1.34-3.38Zm14.31-.06h3.29v.24c-1.3.27-1.62.94-2.2 2.58L141.89 13h-.24l-2.5-5.14-1.96 5.14h-.24l-2.67-7.08c-.37-1-.85-1.32-1.26-1.32v-.27h4.73v.27c-.54 0-1.13.3-.75 1.32l1.23 3.46 1.83-5.16h.2l2.53 5.23.8-2.34c.58-1.66.28-2.4-.76-2.54v-.24Z"/></svg>