<svg xmlns="http://www.w3.org/2000/svg" width="116" height="116" fill="none" viewBox="0 0 116 116"><rect width="116" height="116" fill="url(#a)" rx="8"/><g fill="gray" clip-path="url(#b)"><path d="m23.09 49.96-.22-.03-6.24-1.77a.8.8 0 0 1 .44-1.54l6.24 1.77a.8.8 0 0 1-.22 1.57"/><path d="m12.55 46.97-.22-.03-3.75-1.07a.8.8 0 0 1 .44-1.54l3.75 1.06a.8.8 0 0 1-.22 1.58"/><path d="M29.03 38.02a1 1 0 0 1-.48-.16l-11.86-8.95a.8.8 0 1 1 .96-1.28l11.86 8.95a.8.8 0 0 1-.48 1.44"/><path d="M38.89 29.03a.8.8 0 0 1-.68-.38l-3.75-6.03a.8.8 0 1 1 1.37-.85l3.74 6.04a.8.8 0 0 1-.68 1.22"/><path d="M32.8 19.2a.8.8 0 0 1-.69-.38l-1.73-2.8a.8.8 0 1 1 1.36-.84l1.73 2.8a.8.8 0 0 1-.68 1.22"/><path d="M51.32 24.21a.8.8 0 0 1-.78-.65L47.8 8.96a.8.8 0 0 1 1.58-.3l2.73 14.6a.8.8 0 0 1-.79.95"/><path d="M64.66 24.2h-.14a.8.8 0 0 1-.64-.94l1.33-7.14a.8.8 0 1 1 1.57.3l-1.33 7.13a.8.8 0 0 1-.79.66"/><path d="m66.82 12.67-.15-.01a.8.8 0 0 1-.64-.94l.57-3.07a.8.8 0 0 1 1.57.3l-.57 3.07a.8.8 0 0 1-.78.65"/><path d="M77.1 29.02a.8.8 0 0 1-.68-1.22l7.82-12.63a.8.8 0 1 1 1.36.84l-7.82 12.63a.8.8 0 0 1-.68.38"/><path d="M86.96 38a.8.8 0 0 1-.48-1.44l5.44-4.1a.8.8 0 1 1 .97 1.27l-5.44 4.11a1 1 0 0 1-.49.16"/><path d="M95.97 31.2a.8.8 0 0 1-.48-1.44l2.84-2.15a.8.8 0 1 1 .97 1.28l-2.84 2.15a1 1 0 0 1-.49.16"/><path d="M92.91 49.94a.8.8 0 0 1-.22-1.57l14.29-4.07a.8.8 0 0 1 .99.55.8.8 0 0 1-.55 1L93.13 49.9z"/><path d="M90.49 55.97a10.3 10.3 0 0 0-4.83-6.86 13 13 0 0 0-6.14-1.83c.11-2.67.11-4.33.11-4.39 0-.9-.33-1.76-.93-2.36a2.6 2.6 0 0 0-1.86-.78l-19.29-.02-20.3.02a2.6 2.6 0 0 0-1.86.78c-.6.6-.94 1.46-.93 2.34 0 .23.05 21.5 4.67 35.06.33 1 1.2 1.7 2.24 1.83l2 .19a169 169 0 0 0 27.36 0l1.98-.2a2.7 2.7 0 0 0 2.26-1.82q.72-2.1 1.28-4.4a21.4 21.4 0 0 0 10.4-6.15c3.18-3.5 4.58-7.65 3.84-11.4m-11.32-2.26q1.9.09 3.16.87c.7.43 1.62 1.23 1.89 2.63.6 3.05-2.39 6.88-6.48 8.96.7-4.34 1.16-8.72 1.43-12.46m-5.73 23.7c-.14.4-.5.7-.93.76a164 164 0 0 1-30.93 0c-.45-.07-.8-.36-.93-.76-4.54-13.29-4.59-34.31-4.59-34.54-.01-.46.17-.91.45-1.2.16-.14.4-.32.74-.32l19.3-.02 20.3.02c.33 0 .57.18.71.32.3.29.47.74.47 1.2 0 .07 0 1.74-.11 4.4q-.02.74-.07 1.6-.06 1.5-.17 3.22l-.13 1.6c-.29 4-.77 8.67-1.56 13.25q-.15.9-.32 1.78-.33 1.74-.74 3.43l-.38 1.6q-.5 1.9-1.1 3.66m12-11.12a20 20 0 0 1-8.78 5.46q.42-1.78.73-3.64c5.33-2.2 9.2-7.08 8.4-11.2a5.6 5.6 0 0 0-2.64-3.7 8.4 8.4 0 0 0-3.9-1.12q.13-1.73.18-3.2 3.1.19 5.39 1.58a8.7 8.7 0 0 1 4.09 5.83c.64 3.23-.63 6.9-3.47 9.99"/><path d="M69.43 55.95H60.4l-3.36-8.77-3.35 8.77h-9.03l7.12 5.88-2.39 8.9 7.65-5.14 7.66 5.14-2.4-8.9z"/><path d="M73.3 101.74H40.79a.8.8 0 0 1-.8-.8v-4.47c0-.45.36-.8.8-.8H73.3c.44 0 .8.35.8.8v4.47a.8.8 0 0 1-.8.8m-31.72-1.6h30.93v-2.87H41.58z"/><path d="M77.17 108H36.92a.8.8 0 0 1-.8-.8v-6.26c0-.44.35-.8.8-.8h40.25c.44 0 .8.36.8.8v6.26a.8.8 0 0 1-.8.8m-39.45-1.6h38.65v-4.66H37.72z"/><path d="M73.3 97.27H40.79a.8.8 0 0 1-.8-.8c0-5.22 5.57-9.32 10.67-9.72V79.7c0-.45.36-.8.8-.8h11.18c.45 0 .8.35.8.8v7.04c5.11.4 10.68 4.5 10.68 9.72a.8.8 0 0 1-.8.8m-31.66-1.6h30.81c-.59-4.14-5.61-7.35-9.82-7.35a.8.8 0 0 1-.8-.8V80.5h-9.58v7.01a.8.8 0 0 1-.8.8c-4.2 0-9.23 3.21-9.81 7.34"/></g><defs><linearGradient id="a" x1="116" x2="0" y1="58" y2="58" gradientUnits="userSpaceOnUse"><stop stop-color="#f0f0f0"/><stop offset="1" stop-color="#f9f9f9"/></linearGradient><clipPath id="b"><path fill="#fff" d="M8 8h100v100H8z"/></clipPath></defs></svg>