<svg xmlns="http://www.w3.org/2000/svg" width="244" height="110" fill="none" viewBox="0 0 244 110"><rect width="166.39" height="109" x="76.5" y=".5" fill="#fff" stroke="#006241" rx="9.5"/><path fill="#006241" d="M76 10A10 10 0 0 1 86 0h114.35v110H86a10 10 0 0 1-10-10z"/><circle cx="221.84" cy="23.91" r="14.35" fill="#006241"/><path fill="#c70000" d="M99.3 47.33A46 46 0 1 1 8.7 63.3a46 46 0 0 1 90.6-15.97"/><path fill="#fff" d="M73.43 65.45a32 32 0 0 1 3.2 1.71q.53.32.87.59l-1.15 1.68q-.3-.24-.81-.57a31 31 0 0 0-3.16-1.8zm-.1 9.49a15 15 0 0 0 4.96-2.74 13.5 13.5 0 0 0 4.07-6.25l1.42 1.76q-.36 1.02-.97 2.07a15 15 0 0 1-6.21 5.98q-.84.45-1.8.8z"/><path fill="#fff" d="M58.08 73.43a25 25 0 0 0 3.16-1.7q1.41-.92 2.43-1.83.63-.57 1.25-1.25a20 20 0 0 0 2.04-2.78l1.74 1.16A25 25 0 0 1 66.2 70q-.72.73-1.43 1.35a31 31 0 0 1-5.5 3.66zm5.45-2.6 1.88-.8 1.1 6.21a18 18 0 0 0 .28 1.32q.09.3.16.47l-2.18.38q0-.17-.05-.49a13 13 0 0 0-.17-1.33z"/><path fill="#fff" d="M53.75 68.67q.2.23.37.56l.7 1.2-.9.47q-.14-.28-.33-.58a20 20 0 0 0-.7-1.19zm1.35-.7q.18.25.38.58a20 20 0 0 1 .7 1.17l-.9.47q-.2-.42-.5-.9-.27-.47-.57-.85zm-1.68 5.75q.22 1.28.22 2.36t-.3 2-1 1.75a9 9 0 0 1-1.84 1.6l-1.72-1.14q.93-.53 1.59-1.09a4 4 0 0 0 1.42-2.88q.07-.93-.15-2.22L51 70.43a9 9 0 0 0-.3-1.26l1.97-.35.02.55.1.75zm-5.82-3.88a10 10 0 0 0 .14 1.27l.87 4.92a13 13 0 0 0 .23 1.08q.06.21.08.36L47 77.8l-.02-.36-.15-1.1-.87-4.94-.14-.6-.16-.63zm-4.1 3.28h.36l.52-.04.64-.1 9.04-1.6a12 12 0 0 0 1.5-.36l.32 1.83a25 25 0 0 0-1.5.23l-9.06 1.6a14 14 0 0 0-1.13.22l-.35.1z"/><path fill="#fff" d="M31.35 72.94a8 8 0 0 0 1.5-.15l.71-.12 1-.18 1.1-.2 1-.17.7-.12a11 11 0 0 0 1.46-.37l.32 1.78q-.37.03-.75.1-.39.05-.75.12l-.69.12-1 .18-1.1.19-1 .17-.72.13a22 22 0 0 0-1.47.3zm-.98 3.82a12 12 0 0 0 1.34-.15l.72-.13 4.67-.83 1.64-.28 1.29-.23.71-.13.6-.12.64-.18.32 1.8q-.25 0-.61.07l-.65.1-.72.13-1.28.22-1.64.3-1.74.3-1.64.29-1.3.23-1.39.26-.64.15zm7.23-.28q.23 1.33.2 2.45a8 8 0 0 1-.34 2.04q-.15.51-.5 1.08a7 7 0 0 1-1.8 2.05l-1.83-.89a5.6 5.6 0 0 0 2.15-2.41q.39-.87.4-1.87 0-1-.2-2.12zm1.88-5.95q.23.21.48.53.27.3.5.62.26.3.45.55l-1.02.67a31 31 0 0 0-1.43-1.72zm1.52-.9q.23.23.5.54a27 27 0 0 1 .95 1.13l-1.02.68q-.28-.4-.7-.89-.38-.48-.74-.82z"/><path fill="#fff" d="M82.43 55.06a5 5 0 0 0-.07-1.04l-.1-.6-.2-1.1-.24-1.4-.27-1.53-.47-2.64-.13-.76a5 5 0 0 0-.32-1.17l2.05-.36.01.4q.03.34.1.81l.13.7.19 1.07.22 1.27.24 1.34.21 1.24.18.99.1.6q.52-.34 1.06-.88a10 10 0 0 0 1.84-2.62l1.33 1.33q-.45.84-1.12 1.7a17 17 0 0 1-3.21 3.17l-.2.23zm-6.42.92q.8-.79 1.22-1.79t.54-1.91q.08-.49.03-1.16a22 22 0 0 0-.36-2.98l-.23-1.4a5 5 0 0 0-.35-1.24l2.03-.36v.24l.04.48.09.55a87 87 0 0 1 .47 3.08q.1.84.15 1.62.06.75 0 1.3a8 8 0 0 1-1.75 4.4z"/><path fill="#fff" d="M66.44 48.62q-.06-.34-.19-.81a4 4 0 0 0-.28-.78l2.2-.38q0 .33.06.83t.11.81l.15.85.33 1.87q.2 1.13.2 2.18 0 1.04-.28 2.04a7 7 0 0 1-.9 1.95 9 9 0 0 1-1.67 1.86l-1.93-.97q1-.69 1.6-1.46a5.5 5.5 0 0 0 1.23-3.39 9 9 0 0 0-.15-1.87l-.33-1.9zm-4.87 2.32.73-.06a12 12 0 0 0 1.5-.23l1.22-.22 1.55-.27 1.65-.3 1.56-.27 1.23-.22.7-.12a13 13 0 0 0 1.49-.35l.33 1.88a21 21 0 0 0-1.53.2l-.7.13-1.23.22-1.54.27-1.64.3-1.55.26-1.86.33q-.45.08-.85.18l-.72.17z"/><path fill="#fff" d="M56.17 49.09q.25.25.54.6a21 21 0 0 1 1.1 1.32l-1.11.72a22 22 0 0 0-1.04-1.34q-.25-.3-.56-.61zm1.78-1q.26.23.56.56a33 33 0 0 1 1.1 1.27l-1.09.73a14 14 0 0 0-1.66-1.87zm-7.82 1.8q.37.11.85.3.48.18.97.4l1.67.71-.75 1.7a102 102 0 0 0-3.47-1.42zm-.82 10.23a21 21 0 0 0 3-1.4q.74-.44 1.4-.98a15 15 0 0 0 3.45-3.95q.65-1.08 1.01-2.17l1.4 1.7a15 15 0 0 1-1.9 3.13 19 19 0 0 1-2.7 2.79 18 18 0 0 1-4.31 2.5zm-.75-6.72.86.3a46 46 0 0 1 2.64 1.09l-.73 1.72a48 48 0 0 0-3.5-1.42z"/><path fill="#fff" d="m43.37 51.23.07.64.12.75.15.87.18 1.02.15.84q.19 1.11.23 1.95.06.84-.05 1.5a5 5 0 0 1-.83 2.21q-.36.57-.89 1.08-.53.49-1.08.86a10 10 0 0 1-1.03.64l-1.71-1.27q.99-.41 1.74-.97.77-.57 1.27-1.35.3-.45.44-.9.15-.44.18-.94.02-.52-.04-1.15t-.2-1.43l-.14-.85-.17-.98-.14-.79a9 9 0 0 0-.33-1.36zM37 52.47l.06.5q.02.24.08.57l.09.5.14.81.17.96.17.97.15.85.1.57a16 16 0 0 0 .26 1.2l-2 .34-.06-.55-.09-.67-.1-.57-.15-.84-.17-.98-.17-.96-.14-.8-.09-.5a11 11 0 0 0-.24-1.05z"/><path fill="#fff" d="M27.88 53.6a13 13 0 0 0 .17 1.42l.84 4.23.9 4.59q.12.66-.2 1.08-.31.45-1.1.58-.62.11-1.22.19l-1.2.15-.46-1.77a11 11 0 0 0 1.86-.15q.27-.05.35-.2.09-.16.03-.47l-.19-1.07-.24-1.31a77 77 0 0 0-.56-2.9 65 65 0 0 0-.93-4.02zm-7.46 3.69a11 11 0 0 0 1.54-.18l.7-.12 1.18-.2 1.46-.27 1.53-.27 1.42-.25 1.12-.2.59-.1a12 12 0 0 0 1.41-.36l.33 1.83-1.35.2-.58.1-1.13.2-1.44.25-1.59.28-1.49.27-1.17.2-1.43.27-.78.18zm.42 6.69a18 18 0 0 0 4.6-4.77q.52-.8.78-1.47l.9-.14.27 1.45q-.3.71-.82 1.52a21 21 0 0 1-2.63 3.23q-.78.75-1.58 1.39z"/><path fill="#fff" d="M75.08 37.58q-.95.16-1.73.03-.78-.14-1.4-.63-.62-.5-1.04-1.35a8 8 0 0 1-.64-2.13l-1-5.63 2.03-.36 1.02 5.8q.19 1.07.53 1.65t.82.78q.5.18 1.1.07t1-.44q.39-.36.52-1.02t-.05-1.72l-1.02-5.8 1.95-.35 1 5.62q.22 1.27.12 2.23a4 4 0 0 1-.51 1.62q-.4.67-1.1 1.08-.67.39-1.6.55"/><path fill="#fff" d="m62.01 39.68-1.8-10.21 2.04-.36.79 4.44.04-.01 2.6-5.03 2.24-.4-2.4 4.57 4.75 5.55-2.23.4-3.46-4.13-1.03 1.96.5 2.86z"/><path fill="#fff" d="m51.87 41.47 1.47-10.79 2.41-.43 5.07 9.65-2.15.37-2.39-5.06q-.38-.75-.74-1.58t-.74-1.6h-.06q-.04.87-.13 1.77l-.15 1.73-.52 5.58zm1.57-2.97-.28-1.59 4.85-.86.28 1.59z"/><path fill="#fff" d="m42.75 43.08-1.8-10.21 2.04-.36.7 4.04 3.87-.69-.71-4.03 2.02-.36 1.8 10.21-2.02.36-.78-4.41-3.86.68.78 4.41z"/><path fill="#fff" d="m32.6 44.87 1.47-10.8 2.41-.42 5.07 9.64-2.15.38-2.38-5.07q-.38-.75-.75-1.57-.36-.83-.74-1.6h-.05q-.05.87-.14 1.76l-.14 1.74-.53 5.58zm1.57-2.98-.28-1.58 4.85-.86.28 1.59z"/><path fill="#fff" d="M28.64 45.77q-1.38.24-2.6-.17-1.21-.4-2.07-1.47a6 6 0 0 1-1.15-2.75 6 6 0 0 1-.03-2.31q.21-1.06.77-1.87.56-.8 1.37-1.33a5 5 0 0 1 1.84-.69q1.11-.2 1.95.08.86.27 1.44.67l-.86 1.5q-.45-.3-.96-.46a2.4 2.4 0 0 0-1.2-.05 2.7 2.7 0 0 0-2.21 2.07 5 5 0 0 0-.03 1.95q.2 1.11.67 1.86.48.72 1.23 1.03a3 3 0 0 0 2.45-.09q.32-.17.5-.38l-.36-2.02-1.8.32-.3-1.67 3.64-.64.81 4.6q-.43.6-1.23 1.12a5 5 0 0 1-1.87.7"/></svg>